# xmcd
#
# Track frame offsets:
#	151
#	8328
#	15499
#	25248
#	32251
#	41722
#	48999
#	56618
#	63748
#	69923
#	77756
#	87468
#	95306
#	105187
#	114125
#	122864
#	128728
#	141892
#	150230
#	160602
#	167405
#	173056
#	186773
#	196816
#	205848
#
# Disc length: 2807 seconds
#
# Revision: 0
# Processed by: cddbd v1.5.1PL2 Copyright (c) Steve Scherf et al.
# Submitted via: dBpowerAMP V4.0
#
DISCID=280af519
DTITLE=Various Artist - Best of Bluegrass Vol. 1
DYEAR=2006
DGENRE=Bluegrass
TTITLE0=Gotta Travel On
TTITLE1=Roll On Buddy
TTITLE2=Lonsome Road Blues
TTITLE3=Little Maggie
TTITLE4=Worried Man Blues
TTITLE5=Columbus Rag
TTITLE6=Ain't Nobody Gonna Miss Me When I'm Gone
TTITLE7=The Prisoner Song
TTITLE8=Cripple Creek
TTITLE9=Nine Pound Hammer
TTITLE10=Little Glass Of Wine
TTITLE11=Black Mountain Rag
TTITLE12=Walking Cane
TTITLE13=Pretty Polly
TTITLE14=Nobody's Business
TTITLE15=Shady Grove
TTITLE16=Little John Henry
TTITLE17=Lee HIghway Blues
TTITLE18=Roll In My Sweet Baby's Arms
TTITLE19=Whitehouse Blues
TTITLE20=Rock About My Sara Jane
TTITLE21=Girl in the Blue Velvet Band
TTITLE22=Katie Kline
TTITLE23=I'm Getting Ready To Go
TTITLE24=Sally Goodin
EXTD=
EXTT0=
EXTT1=
EXTT2=
EXTT3=
EXTT4=
EXTT5=
EXTT6=
EXTT7=
EXTT8=
EXTT9=
EXTT10=
EXTT11=
EXTT12=
EXTT13=
EXTT14=
EXTT15=
EXTT16=
EXTT17=
EXTT18=
EXTT19=
EXTT20=
EXTT21=
EXTT22=
EXTT23=
EXTT24=
PLAYORDER=
